# xmcd
#
# Track frame offsets: 
#        150
#        54448
#        97845
#        121128
#
# Disc length: 2738 seconds
#
# Revision: 3
# Processed by: cddbd v1.5.1PL0 Copyright (c) Steve Scherf et al.
# Submitted via: ExactAudioCopy v0.95b2
#
DISCID=250ab004
DTITLE=Isaac Hayes - Hot Buttered Soul
DYEAR=1969
DGENRE=R&B
TTITLE0=Walk on By
TTITLE1=Hyperbolicsyllabicsesquedalymistic
TTITLE2=One Woman
TTITLE3=By the Time I Get to Phoenix
EXTD=
EXTT0=
EXTT1=
EXTT2=
EXTT3=
PLAYORDER=
